<?xml version="1.0" encoding="UTF-8" standalone="no"?>
<!DOCTYPE svg PUBLIC "-//W3C//DTD SVG 1.1//EN" "http://www.w3.org/Graphics/SVG/1.1/DTD/svg11.dtd">
<svg version="1.1" xmlns="http://www.w3.org/2000/svg" xmlns:xlink="http://www.w3.org/1999/xlink" preserveAspectRatio="xMidYMid meet" viewBox="202.376724332881 121.69462107078255 85.19999999999999 58.460000000000036" width="85.2" height="58.46"><defs><path d="M243.64 169.83C278.15 169.83 284.91 159.12 284.91 140.6C284.91 130.88 264.85 121.69 243.64 121.69C222.43 121.69 202.38 130.88 202.38 140.6C202.38 159.12 209.13 169.83 243.64 169.83Z" id="aldRQJTPY"></path><path d="M243.64 169.83C278.15 169.83 284.91 159.12 284.91 140.6C284.91 130.88 264.85 121.69 243.64 121.69C222.43 121.69 202.38 130.88 202.38 140.6C202.38 159.12 209.13 169.83 243.64 169.83Z" id="aECYkJlbD"></path><path d="M243.64 152.64C221.01 152.64 205.82 146.42 205.82 140.6C205.82 134.37 221.7 125.13 243.64 125.13C265.58 125.13 281.47 134.37 281.47 140.6C281.47 146.42 266.27 152.64 243.64 152.64Z" id="fOHtMGK9Z"></path><path d="M243.64 152.64C221.01 152.64 205.82 146.42 205.82 140.6C205.82 134.37 221.7 125.13 243.64 125.13C265.58 125.13 281.47 134.37 281.47 140.6C281.47 146.42 266.27 152.64 243.64 152.64Z" id="d2zZN8jYIU"></path><path d="M236.76 149.2C225.17 149.2 215.55 147.56 208.91 145.19C214.43 149.28 227.02 152.64 243.64 152.64C266.27 152.64 281.47 146.42 281.47 140.6C281.47 137.13 276.53 132.73 268.37 129.51C272.34 132.05 274.59 134.82 274.59 137.17C274.59 142.98 259.39 149.2 236.76 149.2Z" id="axJrJTsXr"></path><path d="M236.76 149.2C225.17 149.2 215.55 147.56 208.91 145.19C214.43 149.28 227.02 152.64 243.64 152.64C266.27 152.64 281.47 146.42 281.47 140.6C281.47 137.13 276.53 132.73 268.37 129.51C272.34 132.05 274.59 134.82 274.59 137.17C274.59 142.98 259.39 149.2 236.76 149.2Z" id="dYZk0QJP"></path><path d="M243.64 156.08C258.77 156.08 274 153.18 280.97 147.58C279.05 159.82 270.67 166.39 243.64 166.39C216.61 166.39 208.23 159.82 206.31 147.58C213.28 153.18 228.52 156.08 243.64 156.08Z" id="a1L2DvbBAp"></path><path d="M243.64 156.08C258.77 156.08 274 153.18 280.97 147.58C279.05 159.82 270.67 166.39 243.64 166.39C216.61 166.39 208.23 159.82 206.31 147.58C213.28 153.18 228.52 156.08 243.64 156.08Z" id="a10fUgNCx4"></path><path d="M210.22 157.15C215.07 163.21 224.84 166.39 243.64 166.39C270.67 166.39 279.05 159.82 280.97 147.58C279.34 148.89 277.22 150.04 274.79 151.05C270.69 158.76 260.99 162.85 239.7 162.85C225 162.85 215.84 160.89 210.22 157.15Z" id="a4aF3b1WX7"></path><path d="M210.22 157.15C215.07 163.21 224.84 166.39 243.64 166.39C270.67 166.39 279.05 159.82 280.97 147.58C279.34 148.89 277.22 150.04 274.79 151.05C270.69 158.76 260.99 162.85 239.7 162.85C225 162.85 215.84 160.89 210.22 157.15Z" id="d7Qk6RNS4"></path><path d="M231.61 130.29C231.61 131.24 232.38 132.01 233.32 132.01C234.27 132.01 235.04 131.24 235.04 130.29C235.04 129.34 234.27 128.57 233.32 128.57C232.38 128.57 231.61 129.34 231.61 130.29Z" id="aBXr49DSN"></path><path d="M231.61 130.29C231.61 131.24 232.38 132.01 233.32 132.01C234.27 132.01 235.04 131.24 235.04 130.29C235.04 129.34 234.27 128.57 233.32 128.57C232.38 128.57 231.61 129.34 231.61 130.29Z" id="auVwCcGg"></path><path d="M238.48 130.29C238.48 131.24 239.25 132.01 240.2 132.01C241.15 132.01 241.92 131.24 241.92 130.29C241.92 129.34 241.15 128.57 240.2 128.57C239.25 128.57 238.48 129.34 238.48 130.29Z" id="b1NwnnGRSX"></path><path d="M238.48 130.29C238.48 131.24 239.25 132.01 240.2 132.01C241.15 132.01 241.92 131.24 241.92 130.29C241.92 129.34 241.15 128.57 240.2 128.57C239.25 128.57 238.48 129.34 238.48 130.29Z" id="b189qNIjrm"></path><path d="M245.36 130.29C245.36 131.24 246.13 132.01 247.08 132.01C248.03 132.01 248.8 131.24 248.8 130.29C248.8 129.34 248.03 128.57 247.08 128.57C246.13 128.57 245.36 129.34 245.36 130.29Z" id="c6Z7tniETX"></path><path d="M245.36 130.29C245.36 131.24 246.13 132.01 247.08 132.01C248.03 132.01 248.8 131.24 248.8 130.29C248.8 129.34 248.03 128.57 247.08 128.57C246.13 128.57 245.36 129.34 245.36 130.29Z" id="h6JfzPsn1e"></path><path d="M252.24 130.29C252.24 131.24 253.01 132.01 253.96 132.01C254.91 132.01 255.68 131.24 255.68 130.29C255.68 129.34 254.91 128.57 253.96 128.57C253.01 128.57 252.24 129.34 252.24 130.29Z" id="e2qCDHDxyy"></path><path d="M252.24 130.29C252.24 131.24 253.01 132.01 253.96 132.01C254.91 132.01 255.68 131.24 255.68 130.29C255.68 129.34 254.91 128.57 253.96 128.57C253.01 128.57 252.24 129.34 252.24 130.29Z" id="cjvEzLfdL"></path><path d="M240.2 161.24C240.2 162.19 240.97 162.96 241.92 162.96C242.27 162.96 245.02 162.96 245.36 162.96C246.31 162.96 247.08 162.19 247.08 161.24C247.08 160.29 246.31 159.52 245.36 159.52C244.67 159.52 242.27 159.52 241.92 159.52C240.97 159.52 240.2 160.29 240.2 161.24Z" id="coi6c5C0u"></path><path d="M240.2 161.24C240.2 162.19 240.97 162.96 241.92 162.96C242.27 162.96 245.02 162.96 245.36 162.96C246.31 162.96 247.08 162.19 247.08 161.24C247.08 160.29 246.31 159.52 245.36 159.52C244.67 159.52 242.27 159.52 241.92 159.52C240.97 159.52 240.2 160.29 240.2 161.24Z" id="bL44OZ6wY"></path><path d="M246.32 180.15C280.83 180.15 287.58 169.43 287.58 150.92C287.58 141.2 267.53 132.01 246.32 132.01C225.11 132.01 205.05 141.2 205.05 150.92C205.05 169.43 211.8 180.15 246.32 180.15Z" id="a1yeQ1vhPj"></path><linearGradient id="gradientiC8TIVVKb" gradientUnits="userSpaceOnUse" x1="209.56" y1="139.58" x2="281.58" y2="173.16"><stop style="stop-color: #ffffff;stop-opacity: 0.2" offset="0%"></stop><stop style="stop-color: #ffffff;stop-opacity: 0" offset="100%"></stop></linearGradient><path d="M246.32 180.15C280.83 180.15 287.58 169.43 287.58 150.92C287.58 141.2 267.53 132.01 246.32 132.01C225.11 132.01 205.05 141.2 205.05 150.92C205.05 169.43 211.8 180.15 246.32 180.15Z" id="a2aBivigiq"></path></defs><g><g><g><use xlink:href="#aldRQJTPY" opacity="1" fill="#303c42" fill-opacity="1"></use><g><use xlink:href="#aldRQJTPY" opacity="1" fill-opacity="0" stroke="#000000" stroke-width="1" stroke-opacity="0"></use></g></g><g><use xlink:href="#aECYkJlbD" opacity="1" fill="#000000" fill-opacity="0"></use><g><use xlink:href="#aECYkJlbD" opacity="1" fill-opacity="0" stroke="#000000" stroke-width="1" stroke-opacity="0"></use></g></g><g><use xlink:href="#fOHtMGK9Z" opacity="1" fill="#1a1a1a" fill-opacity="1"></use><g><use xlink:href="#fOHtMGK9Z" opacity="1" fill-opacity="0" stroke="#000000" stroke-width="1" stroke-opacity="0"></use></g></g><g><use xlink:href="#d2zZN8jYIU" opacity="1" fill="#000000" fill-opacity="0"></use><g><use xlink:href="#d2zZN8jYIU" opacity="1" fill-opacity="0" stroke="#000000" stroke-width="1" stroke-opacity="0"></use></g></g><g><use xlink:href="#axJrJTsXr" opacity="1" fill="#000000" fill-opacity="1"></use><g><use xlink:href="#axJrJTsXr" opacity="1" fill-opacity="0" stroke="#000000" stroke-width="1" stroke-opacity="0"></use></g></g><g><use xlink:href="#dYZk0QJP" opacity="1" fill="#000000" fill-opacity="0"></use><g><use xlink:href="#dYZk0QJP" opacity="1" fill-opacity="0" stroke="#000000" stroke-width="1" stroke-opacity="0"></use></g></g><g><use xlink:href="#a1L2DvbBAp" opacity="1" fill="#fafafa" fill-opacity="1"></use><g><use xlink:href="#a1L2DvbBAp" opacity="1" fill-opacity="0" stroke="#000000" stroke-width="1" stroke-opacity="0"></use></g></g><g><use xlink:href="#a10fUgNCx4" opacity="1" fill="#000000" fill-opacity="0"></use><g><use xlink:href="#a10fUgNCx4" opacity="1" fill-opacity="0" stroke="#000000" stroke-width="1" stroke-opacity="0"></use></g></g><g><use xlink:href="#a4aF3b1WX7" opacity="1" fill="#000000" fill-opacity="1"></use><g><use xlink:href="#a4aF3b1WX7" opacity="1" fill-opacity="0" stroke="#000000" stroke-width="1" stroke-opacity="0"></use></g></g><g><use xlink:href="#d7Qk6RNS4" opacity="1" fill="#000000" fill-opacity="0"></use><g><use xlink:href="#d7Qk6RNS4" opacity="1" fill-opacity="0" stroke="#000000" stroke-width="1" stroke-opacity="0"></use></g></g><g><use xlink:href="#aBXr49DSN" opacity="1" fill="#fafafa" fill-opacity="1"></use><g><use xlink:href="#aBXr49DSN" opacity="1" fill-opacity="0" stroke="#000000" stroke-width="1" stroke-opacity="0"></use></g></g><g><use xlink:href="#auVwCcGg" opacity="1" fill="#000000" fill-opacity="0"></use><g><use xlink:href="#auVwCcGg" opacity="1" fill-opacity="0" stroke="#000000" stroke-width="1" stroke-opacity="0"></use></g></g><g><use xlink:href="#b1NwnnGRSX" opacity="1" fill="#fafafa" fill-opacity="1"></use><g><use xlink:href="#b1NwnnGRSX" opacity="1" fill-opacity="0" stroke="#000000" stroke-width="1" stroke-opacity="0"></use></g></g><g><use xlink:href="#b189qNIjrm" opacity="1" fill="#000000" fill-opacity="0"></use><g><use xlink:href="#b189qNIjrm" opacity="1" fill-opacity="0" stroke="#000000" stroke-width="1" stroke-opacity="0"></use></g></g><g><use xlink:href="#c6Z7tniETX" opacity="1" fill="#fafafa" fill-opacity="1"></use><g><use xlink:href="#c6Z7tniETX" opacity="1" fill-opacity="0" stroke="#000000" stroke-width="1" stroke-opacity="0"></use></g></g><g><use xlink:href="#h6JfzPsn1e" opacity="1" fill="#000000" fill-opacity="0"></use><g><use xlink:href="#h6JfzPsn1e" opacity="1" fill-opacity="0" stroke="#000000" stroke-width="1" stroke-opacity="0"></use></g></g><g><use xlink:href="#e2qCDHDxyy" opacity="1" fill="#fafafa" fill-opacity="1"></use><g><use xlink:href="#e2qCDHDxyy" opacity="1" fill-opacity="0" stroke="#000000" stroke-width="1" stroke-opacity="0"></use></g></g><g><use xlink:href="#cjvEzLfdL" opacity="1" fill="#000000" fill-opacity="0"></use><g><use xlink:href="#cjvEzLfdL" opacity="1" fill-opacity="0" stroke="#000000" stroke-width="1" stroke-opacity="0"></use></g></g><g><use xlink:href="#coi6c5C0u" opacity="1" fill="#303c42" fill-opacity="1"></use><g><use xlink:href="#coi6c5C0u" opacity="1" fill-opacity="0" stroke="#000000" stroke-width="1" stroke-opacity="0"></use></g></g><g><use xlink:href="#bL44OZ6wY" opacity="1" fill="#000000" fill-opacity="0"></use><g><use xlink:href="#bL44OZ6wY" opacity="1" fill-opacity="0" stroke="#000000" stroke-width="1" stroke-opacity="0"></use></g></g><g><use xlink:href="#a1yeQ1vhPj" opacity="1" fill="url(#gradientiC8TIVVKb)"></use><g><use xlink:href="#a1yeQ1vhPj" opacity="1" fill-opacity="0" stroke="#000000" stroke-width="1" stroke-opacity="0"></use></g></g><g><use xlink:href="#a2aBivigiq" opacity="1" fill="#766868" fill-opacity="0"></use><g><use xlink:href="#a2aBivigiq" opacity="1" fill-opacity="0" stroke="#000000" stroke-width="1" stroke-opacity="0"></use></g></g></g></g></svg>