<?xml version="1.0" encoding="UTF-8" standalone="no"?>
<!DOCTYPE svg PUBLIC "-//W3C//DTD SVG 1.1//EN" "http://www.w3.org/Graphics/SVG/1.1/DTD/svg11.dtd">
<svg version="1.1" xmlns="http://www.w3.org/2000/svg" xmlns:xlink="http://www.w3.org/1999/xlink" preserveAspectRatio="xMidYMid meet" viewBox="211.43430782784827 97.80744246425269 77.1313843443034 70.99456080548254" width="77.13" height="70.99"><defs><path d="M236.89 155.85L256.65 155.85L256.65 164.03L236.89 164.03L236.89 155.85Z" id="bdl6YNRhZ"></path><path d="M236.89 155.85L256.65 155.85L256.65 164.03L236.89 164.03L236.89 155.85Z" id="agqpjYg8R"></path><path d="M282.73 98.16L282.88 98.18L283.03 98.21L283.18 98.24L283.32 98.28L283.47 98.32L283.61 98.37L283.75 98.43L283.88 98.49L284.02 98.56L284.15 98.63L284.28 98.7L284.4 98.78L284.52 98.87L284.64 98.96L284.75 99.05L284.86 99.15L284.97 99.25L285.07 99.36L285.17 99.47L285.26 99.58L285.35 99.7L285.43 99.82L285.51 99.94L285.59 100.07L285.66 100.2L285.73 100.33L285.79 100.47L285.84 100.61L285.89 100.75L285.94 100.89L285.98 101.04L286.01 101.19L286.04 101.34L286.06 101.49L286.08 101.65L286.09 101.8L286.09 101.96L286.09 156.48L286.09 156.64L286.08 156.8L286.06 156.95L286.04 157.1L286.01 157.26L285.98 157.4L285.94 157.55L285.89 157.69L285.84 157.84L285.79 157.98L285.73 158.11L285.66 158.24L285.59 158.37L285.51 158.5L285.43 158.63L285.35 158.75L285.26 158.86L285.17 158.98L285.07 159.09L284.97 159.19L284.86 159.3L284.75 159.39L284.64 159.49L284.52 159.58L284.4 159.66L284.28 159.74L284.15 159.82L284.02 159.89L283.88 159.95L283.75 160.01L283.61 160.07L283.47 160.12L283.32 160.17L283.18 160.2L283.03 160.24L282.88 160.27L282.73 160.29L282.57 160.3L282.41 160.31L282.26 160.32L215.27 160.32L215.11 160.31L214.95 160.3L214.8 160.29L214.65 160.27L214.49 160.24L214.35 160.2L214.2 160.17L214.06 160.12L213.91 160.07L213.78 160.01L213.64 159.95L213.51 159.89L213.38 159.82L213.25 159.74L213.12 159.66L213 159.58L212.89 159.49L212.77 159.39L212.66 159.3L212.56 159.19L212.45 159.09L212.36 158.98L212.26 158.86L212.17 158.75L212.09 158.63L212.01 158.5L211.93 158.37L211.86 158.24L211.8 158.11L211.74 157.98L211.68 157.84L211.63 157.69L211.59 157.55L211.55 157.4L211.51 157.26L211.48 157.1L211.46 156.95L211.45 156.8L211.44 156.64L211.43 156.48L211.43 101.96L211.44 101.8L211.45 101.65L211.46 101.49L211.48 101.34L211.51 101.19L211.55 101.04L211.59 100.89L211.63 100.75L211.68 100.61L211.74 100.47L211.8 100.33L211.86 100.2L211.93 100.07L212.01 99.94L212.09 99.82L212.17 99.7L212.26 99.58L212.36 99.47L212.45 99.36L212.56 99.25L212.66 99.15L212.77 99.05L212.89 98.96L213 98.87L213.12 98.78L213.25 98.7L213.38 98.63L213.51 98.56L213.64 98.49L213.78 98.43L213.91 98.37L214.06 98.32L214.2 98.28L214.35 98.24L214.49 98.21L214.65 98.18L214.8 98.16L214.95 98.14L215.11 98.13L215.27 98.13L282.26 98.13L282.41 98.13L282.57 98.14L282.73 98.16Z" id="eDvV25h4z"></path><path d="M279.15 98.19L279.37 98.24L279.58 98.3L279.79 98.37L279.99 98.46L280.18 98.55L280.37 98.66L280.55 98.78L280.72 98.91L280.89 99.04L281.04 99.19L281.19 99.35L281.33 99.51L281.46 99.68L281.57 99.86L281.68 100.05L281.78 100.25L281.86 100.45L281.94 100.65L282 100.86L282.04 101.08L282.08 101.3L282.1 101.53L282.11 101.76L282.11 153.37L282.1 153.6L282.08 153.82L282.04 154.05L282 154.26L281.94 154.47L281.86 154.68L281.78 154.88L281.68 155.08L281.57 155.26L281.46 155.44L281.33 155.61L281.19 155.78L281.04 155.94L280.89 156.08L280.72 156.22L280.55 156.35L280.37 156.47L280.18 156.57L279.99 156.67L279.79 156.75L279.58 156.83L279.37 156.89L279.15 156.93L278.93 156.97L278.71 156.99L278.48 157L274.05 157L274.28 156.99L274.5 156.97L274.72 156.93L274.94 156.89L275.15 156.83L275.36 156.75L275.56 156.67L275.75 156.57L275.94 156.47L276.12 156.35L276.29 156.22L276.46 156.08L276.61 155.94L276.76 155.78L276.9 155.61L277.02 155.44L277.14 155.26L277.25 155.08L277.35 154.88L277.43 154.68L277.5 154.47L277.56 154.26L277.61 154.05L277.65 153.82L277.67 153.6L277.67 153.37L277.67 101.76L277.67 101.53L277.65 101.3L277.61 101.08L277.56 100.86L277.5 100.65L277.43 100.45L277.35 100.25L277.25 100.05L277.14 99.86L277.02 99.68L276.9 99.51L276.76 99.35L276.61 99.19L276.46 99.04L276.29 98.91L276.12 98.78L275.94 98.66L275.75 98.55L275.56 98.46L275.36 98.37L275.15 98.3L274.94 98.24L274.72 98.19L274.5 98.16L274.28 98.14L274.05 98.13L278.48 98.13L278.71 98.14L278.93 98.16L279.15 98.19Z" id="bmva0SbUB"></path><path d="M282.09 153.75L282.06 153.94L282.03 154.12L281.98 154.3L281.93 154.48L281.87 154.65L281.8 154.82L281.73 154.99L281.64 155.15L281.55 155.3L281.45 155.45L281.34 155.6L281.23 155.74L281.11 155.87L280.98 156L280.85 156.12L280.71 156.23L280.56 156.34L280.41 156.44L280.26 156.53L280.1 156.62L279.93 156.69L279.76 156.76L279.59 156.82L279.41 156.88L279.23 156.92L279.05 156.95L278.86 156.98L278.67 156.99L278.48 157L215.06 157L214.87 156.99L214.68 156.98L214.49 156.95L214.31 156.92L214.13 156.88L213.95 156.82L213.78 156.76L213.61 156.69L213.44 156.62L213.28 156.53L213.13 156.44L212.98 156.34L212.83 156.23L212.69 156.12L212.56 156L212.43 155.87L212.31 155.74L212.2 155.6L212.09 155.45L211.99 155.3L211.9 155.15L211.81 154.99L211.74 154.82L211.67 154.65L211.61 154.48L211.56 154.3L211.51 154.12L211.48 153.94L211.45 153.75L211.44 153.56L211.43 153.37L211.43 148.26L282.11 148.26L282.11 153.37L282.1 153.56L282.09 153.75Z" id="d1mndR23Bb"></path><path d="M282.09 153.75L282.06 153.94L282.03 154.12L281.98 154.3L281.93 154.48L281.87 154.65L281.8 154.82L281.73 154.99L281.64 155.15L281.55 155.3L281.45 155.45L281.34 155.6L281.23 155.74L281.11 155.87L280.98 156L280.85 156.12L280.71 156.23L280.56 156.34L280.41 156.44L280.26 156.53L280.1 156.62L279.93 156.69L279.76 156.76L279.59 156.82L279.41 156.88L279.23 156.92L279.05 156.95L278.86 156.98L278.67 156.99L278.48 157L215.06 157L214.87 156.99L214.68 156.98L214.49 156.95L214.31 156.92L214.13 156.88L213.95 156.82L213.78 156.76L213.61 156.69L213.44 156.62L213.28 156.53L213.13 156.44L212.98 156.34L212.83 156.23L212.69 156.12L212.56 156L212.43 155.87L212.31 155.74L212.2 155.6L212.09 155.45L211.99 155.3L211.9 155.15L211.81 154.99L211.74 154.82L211.67 154.65L211.61 154.48L211.56 154.3L211.51 154.12L211.48 153.94L211.45 153.75L211.44 153.56L211.43 153.37L211.43 148.26L282.11 148.26L282.11 153.37L282.1 153.56L282.09 153.75Z" id="a1hCG78z69"></path><path d="M281.61 155.2L281.04 155.94L280.31 156.5L279.44 156.87L278.48 157L274.05 157L275.01 156.87L275.88 156.5L276.61 155.94L277.18 155.2L277.55 154.33L277.67 153.37L277.67 148.26L282.11 148.26L282.11 153.37L281.98 154.33L281.61 155.2Z" id="b8Fs1Y7He"></path><path d="M281.61 155.2L281.04 155.94L280.31 156.5L279.44 156.87L278.48 157L274.05 157L275.01 156.87L275.88 156.5L276.61 155.94L277.18 155.2L277.55 154.33L277.67 153.37L277.67 148.26L282.11 148.26L282.11 153.37L281.98 154.33L281.61 155.2Z" id="bBVZai9kr"></path><path d="M279.11 98.17L279.29 98.2L279.47 98.24L279.64 98.29L279.81 98.35L279.97 98.41L280.13 98.49L280.29 98.57L280.44 98.65L280.59 98.75L280.73 98.85L280.87 98.96L281 99.07L281.12 99.19L281.24 99.32L281.36 99.45L281.47 99.59L281.57 99.73L281.66 99.88L281.75 100.03L281.83 100.18L281.9 100.34L281.97 100.51L282.02 100.68L282.07 100.85L282.11 101.03L282.15 101.2L282.17 101.39L282.18 101.57L282.19 101.76L282.19 110.51L211.51 110.51L211.51 101.76L211.52 101.57L211.53 101.39L211.56 101.2L211.59 101.03L211.63 100.85L211.68 100.68L211.73 100.51L211.8 100.34L211.87 100.18L211.95 100.03L212.04 99.88L212.13 99.73L212.23 99.59L212.34 99.45L212.46 99.32L212.58 99.19L212.7 99.07L212.83 98.96L212.97 98.85L213.11 98.75L213.26 98.65L213.41 98.57L213.57 98.49L213.73 98.41L213.89 98.35L214.06 98.29L214.23 98.24L214.41 98.2L214.59 98.17L214.77 98.15L214.95 98.13L215.14 98.13L278.56 98.13L278.75 98.13L278.93 98.15L279.11 98.17Z" id="b1OKFUjpN2"></path><path d="M279.11 98.17L279.29 98.2L279.47 98.24L279.64 98.29L279.81 98.35L279.97 98.41L280.13 98.49L280.29 98.57L280.44 98.65L280.59 98.75L280.73 98.85L280.87 98.96L281 99.07L281.12 99.19L281.24 99.32L281.36 99.45L281.47 99.59L281.57 99.73L281.66 99.88L281.75 100.03L281.83 100.18L281.9 100.34L281.97 100.51L282.02 100.68L282.07 100.85L282.11 101.03L282.15 101.2L282.17 101.39L282.18 101.57L282.19 101.76L282.19 110.51L211.51 110.51L211.51 101.76L211.52 101.57L211.53 101.39L211.56 101.2L211.59 101.03L211.63 100.85L211.68 100.68L211.73 100.51L211.8 100.34L211.87 100.18L211.95 100.03L212.04 99.88L212.13 99.73L212.23 99.59L212.34 99.45L212.46 99.32L212.58 99.19L212.7 99.07L212.83 98.96L212.97 98.85L213.11 98.75L213.26 98.65L213.41 98.57L213.57 98.49L213.73 98.41L213.89 98.35L214.06 98.29L214.23 98.24L214.41 98.2L214.59 98.17L214.77 98.15L214.95 98.13L215.14 98.13L278.56 98.13L278.75 98.13L278.93 98.15L279.11 98.17Z" id="b13ukA7GSy"></path><path d="M287.42 99.12L287.94 99.72L288.32 100.42L288.53 101.2L288.57 102.04L287.91 110.77L283.4 110.43L284.06 101.7L284.03 100.86L283.82 100.08L283.44 99.38L282.93 98.78L282.28 98.3L281.54 97.96L280.72 97.81L285.22 98.15L286.04 98.3L286.78 98.64L287.42 99.12Z" id="c1l7qMG2hq"></path><path d="M261.84 163.1L262.11 163.21L262.37 163.34L262.61 163.5L262.84 163.69L263.04 163.89L263.23 164.12L263.39 164.36L263.52 164.62L263.63 164.89L263.71 165.18L263.76 165.48L263.77 165.79L263.77 168.09L263.77 168.17L263.76 168.24L263.74 168.32L263.71 168.38L263.67 168.45L263.63 168.51L263.59 168.57L263.54 168.62L263.48 168.66L263.42 168.71L263.35 168.74L263.29 168.77L263.21 168.79L263.14 168.8L263.06 168.8L230.48 168.8L230.4 168.8L230.33 168.79L230.25 168.77L230.19 168.74L230.12 168.71L230.06 168.66L230 168.62L229.95 168.57L229.91 168.51L229.87 168.45L229.83 168.38L229.8 168.32L229.78 168.24L229.77 168.17L229.77 168.09L229.77 165.79L229.78 165.48L229.83 165.18L229.91 164.89L230.02 164.62L230.15 164.36L230.31 164.12L230.5 163.89L230.7 163.69L230.93 163.5L231.17 163.34L231.43 163.21L231.7 163.1L231.99 163.02L232.29 162.97L232.6 162.96L260.94 162.96L261.25 162.97L261.55 163.02L261.84 163.1Z" id="b1mD4E7obC"></path><path d="M261.84 163.1L262.11 163.21L262.37 163.34L262.61 163.5L262.84 163.69L263.04 163.89L263.23 164.12L263.39 164.36L263.52 164.62L263.63 164.89L263.71 165.18L263.76 165.48L263.77 165.79L263.77 168.09L263.77 168.17L263.76 168.24L263.74 168.32L263.71 168.38L263.67 168.45L263.63 168.51L263.59 168.57L263.54 168.62L263.48 168.66L263.42 168.71L263.35 168.74L263.29 168.77L263.21 168.79L263.14 168.8L263.06 168.8L230.48 168.8L230.4 168.8L230.33 168.79L230.25 168.77L230.19 168.74L230.12 168.71L230.06 168.66L230 168.62L229.95 168.57L229.91 168.51L229.87 168.45L229.83 168.38L229.8 168.32L229.78 168.24L229.77 168.17L229.77 168.09L229.77 165.79L229.78 165.48L229.83 165.18L229.91 164.89L230.02 164.62L230.15 164.36L230.31 164.12L230.5 163.89L230.7 163.69L230.93 163.5L231.17 163.34L231.43 163.21L231.7 163.1L231.99 163.02L232.29 162.97L232.6 162.96L260.94 162.96L261.25 162.97L261.55 163.02L261.84 163.1Z" id="b1cqjT4qmO"></path><path d="M263.55 164.69L263.77 165.79L263.77 168.09L263.72 168.37L263.56 168.59L263.34 168.75L263.06 168.8L260.55 168.8L260.55 165.79L260.33 164.69L259.72 163.79L258.82 163.18L257.72 162.96L260.94 162.96L262.04 163.18L262.94 163.79L263.55 164.69Z" id="a2lFxfy9Qf"></path><path d="M263.55 164.69L263.77 165.79L263.77 168.09L263.72 168.37L263.56 168.59L263.34 168.75L263.06 168.8L260.55 168.8L260.55 165.79L260.33 164.69L259.72 163.79L258.82 163.18L257.72 162.96L260.94 162.96L262.04 163.18L262.94 163.79L263.55 164.69Z" id="a1H2q2XQXu"></path><path d="M220.48 115.79L220.55 116.17L220.48 116.56L220.25 116.91L217.64 119.52L220.25 122.13L220.48 122.47L220.55 122.86L220.48 123.25L220.25 123.6L220.09 123.73L219.91 123.82L219.71 123.88L219.52 123.9L219.32 123.88L219.13 123.82L218.94 123.73L218.78 123.6L215.44 120.25L215.21 119.91L215.13 119.52L215.21 119.13L215.44 118.79L218.78 115.44L219.13 115.21L219.52 115.14L219.91 115.21L220.25 115.44L220.48 115.79Z" id="a1DEKnYkW6"></path><path d="M220.48 115.79L220.55 116.17L220.48 116.56L220.25 116.91L217.64 119.52L220.25 122.13L220.48 122.47L220.55 122.86L220.48 123.25L220.25 123.6L220.09 123.73L219.91 123.82L219.71 123.88L219.52 123.9L219.32 123.88L219.13 123.82L218.94 123.73L218.78 123.6L215.44 120.25L215.21 119.91L215.13 119.52L215.21 119.13L215.44 118.79L218.78 115.44L219.13 115.21L219.52 115.14L219.91 115.21L220.25 115.44L220.48 115.79Z" id="b1cOSHmI3C"></path><path d="M231.59 118.79L231.82 119.13L231.89 119.52L231.82 119.91L231.59 120.25L228.24 123.6L228.08 123.73L227.9 123.82L227.71 123.88L227.51 123.9L227.31 123.88L227.12 123.82L226.94 123.73L226.78 123.6L226.55 123.25L226.47 122.86L226.55 122.47L226.78 122.13L229.39 119.52L226.78 116.91L226.55 116.56L226.47 116.17L226.55 115.78L226.78 115.44L227.12 115.21L227.51 115.14L227.9 115.21L228.24 115.44L231.59 118.79Z" id="d1ZG7oGlz"></path><path d="M231.59 118.79L231.82 119.13L231.89 119.52L231.82 119.91L231.59 120.25L228.24 123.6L228.08 123.73L227.9 123.82L227.71 123.88L227.51 123.9L227.31 123.88L227.12 123.82L226.94 123.73L226.78 123.6L226.55 123.25L226.47 122.86L226.55 122.47L226.78 122.13L229.39 119.52L226.78 116.91L226.55 116.56L226.47 116.17L226.55 115.78L226.78 115.44L227.12 115.21L227.51 115.14L227.9 115.21L228.24 115.44L231.59 118.79Z" id="bfm1b14Q"></path><path d="M225.89 115.76L225.98 116.15L225.91 116.55L223.28 123.24L223.12 123.52L222.89 123.72L222.62 123.86L222.31 123.9L222.22 123.9L222.12 123.88L222.03 123.86L221.93 123.83L221.59 123.6L221.36 123.28L221.28 122.89L221.35 122.48L223.98 115.8L224.2 115.45L224.53 115.22L224.91 115.14L225.32 115.21L225.67 115.43L225.89 115.76Z" id="g4L3m8iDB0"></path><path d="M225.89 115.76L225.98 116.15L225.91 116.55L223.28 123.24L223.12 123.52L222.89 123.72L222.62 123.86L222.31 123.9L222.22 123.9L222.12 123.88L222.03 123.86L221.93 123.83L221.59 123.6L221.36 123.28L221.28 122.89L221.35 122.48L223.98 115.8L224.2 115.45L224.53 115.22L224.91 115.14L225.32 115.21L225.67 115.43L225.89 115.76Z" id="ofaI1Ruds"></path><path d="M224.92 128.72L225 129.12L224.92 129.53L224.69 129.85L224.36 130.08L223.96 130.16L216.77 130.16L216.37 130.08L216.04 129.85L215.82 129.53L215.74 129.12L215.82 128.72L216.04 128.39L216.37 128.17L216.77 128.09L223.96 128.09L224.36 128.17L224.69 128.39L224.92 128.72Z" id="e11soJYPY2"></path><path d="M224.92 128.72L225 129.12L224.92 129.53L224.69 129.85L224.36 130.08L223.96 130.16L216.77 130.16L216.37 130.08L216.04 129.85L215.82 129.53L215.74 129.12L215.82 128.72L216.04 128.39L216.37 128.17L216.77 128.09L223.96 128.09L224.36 128.17L224.69 128.39L224.92 128.72Z" id="e85iGXa5c2"></path><path d="M241.24 128.39L241.41 128.6L241.51 128.85L241.55 129.12L241.51 129.4L241.41 129.64L241.24 129.85L241.04 130.02L240.79 130.12L240.51 130.16L227.88 130.16L227.6 130.12L227.35 130.02L227.15 129.85L226.98 129.64L226.88 129.4L226.84 129.12L226.88 128.85L226.98 128.6L227.15 128.39L227.35 128.23L227.6 128.12L227.88 128.09L240.51 128.09L240.79 128.12L241.04 128.23L241.24 128.39Z" id="l2Rtkp1b9T"></path><path d="M241.24 128.39L241.41 128.6L241.51 128.85L241.55 129.12L241.51 129.4L241.41 129.64L241.24 129.85L241.04 130.02L240.79 130.12L240.51 130.16L227.88 130.16L227.6 130.12L227.35 130.02L227.15 129.85L226.98 129.64L226.88 129.4L226.84 129.12L226.88 128.85L226.98 128.6L227.15 128.39L227.35 128.23L227.6 128.12L227.88 128.09L240.51 128.09L240.79 128.12L241.04 128.23L241.24 128.39Z" id="a3RVuUfnFr"></path><path d="M220.79 133.22L220.87 133.62L220.79 134.02L220.57 134.35L220.24 134.58L219.84 134.66L216.77 134.66L216.37 134.58L216.04 134.35L215.82 134.02L215.74 133.62L215.82 133.22L216.04 132.89L216.37 132.67L216.77 132.58L219.84 132.58L220.24 132.67L220.57 132.89L220.79 133.22Z" id="eQpfSBYwL"></path><path d="M220.79 133.22L220.87 133.62L220.79 134.02L220.57 134.35L220.24 134.58L219.84 134.66L216.77 134.66L216.37 134.58L216.04 134.35L215.82 134.02L215.74 133.62L215.82 133.22L216.04 132.89L216.37 132.67L216.77 132.58L219.84 132.58L220.24 132.67L220.57 132.89L220.79 133.22Z" id="f132B86L1"></path><path d="M239.43 133.22L239.51 133.62L239.43 134.02L239.21 134.35L238.88 134.58L238.47 134.66L236.61 134.66L236.21 134.58L235.88 134.35L235.65 134.02L235.57 133.62L235.65 133.22L235.88 132.89L236.21 132.67L236.61 132.58L238.47 132.58L238.88 132.67L239.21 132.89L239.43 133.22Z" id="b92fgwq5F"></path><path d="M239.43 133.22L239.51 133.62L239.43 134.02L239.21 134.35L238.88 134.58L238.47 134.66L236.61 134.66L236.21 134.58L235.88 134.35L235.65 134.02L235.57 133.62L235.65 133.22L235.88 132.89L236.21 132.67L236.61 132.58L238.47 132.58L238.88 132.67L239.21 132.89L239.43 133.22Z" id="a1iBzjnMxf"></path><path d="M233.69 133.22L233.77 133.62L233.69 134.02L233.47 134.35L233.14 134.58L232.74 134.66L223.58 134.66L223.18 134.58L222.85 134.35L222.62 134.02L222.54 133.62L222.62 133.22L222.85 132.89L223.18 132.67L223.58 132.58L232.74 132.58L233.14 132.67L233.47 132.89L233.69 133.22Z" id="c3O0afkmrK"></path><path d="M233.69 133.22L233.77 133.62L233.69 134.02L233.47 134.35L233.14 134.58L232.74 134.66L223.58 134.66L223.18 134.58L222.85 134.35L222.62 134.02L222.54 133.62L222.62 133.22L222.85 132.89L223.18 132.67L223.58 132.58L232.74 132.58L233.14 132.67L233.47 132.89L233.69 133.22Z" id="eEoyYKEOu"></path><path d="M246.3 133.22L246.38 133.62L246.3 134.02L246.08 134.35L245.75 134.58L245.35 134.66L241.86 134.66L241.45 134.58L241.12 134.35L240.9 134.02L240.82 133.62L240.9 133.22L241.12 132.89L241.45 132.67L241.86 132.58L245.35 132.58L245.75 132.67L246.08 132.89L246.3 133.22Z" id="b1owdrEDTJ"></path><path d="M246.3 133.22L246.38 133.62L246.3 134.02L246.08 134.35L245.75 134.58L245.35 134.66L241.86 134.66L241.45 134.58L241.12 134.35L240.9 134.02L240.82 133.62L240.9 133.22L241.12 132.89L241.45 132.67L241.86 132.58L245.35 132.58L245.75 132.67L246.08 132.89L246.3 133.22Z" id="a1Aoiy1Qz8"></path><path d="M239.62 118.9L239.7 119.31L239.62 119.71L239.4 120.04L239.07 120.26L238.66 120.34L234.98 120.34L234.58 120.26L234.25 120.04L234.03 119.71L233.94 119.31L234.03 118.9L234.25 118.57L234.58 118.35L234.98 118.27L238.66 118.27L239.07 118.35L239.4 118.57L239.62 118.9Z" id="e13XkrPTBR"></path><path d="M239.62 118.9L239.7 119.31L239.62 119.71L239.4 120.04L239.07 120.26L238.66 120.34L234.98 120.34L234.58 120.26L234.25 120.04L234.03 119.71L233.94 119.31L234.03 118.9L234.25 118.57L234.58 118.35L234.98 118.27L238.66 118.27L239.07 118.35L239.4 118.57L239.62 118.9Z" id="ggVu5SqbH"></path><path d="M265.74 118.39L265.87 118.47L265.99 118.57L266.1 118.7L266.18 118.83L266.24 118.98L266.28 119.14L266.3 119.31L266.28 119.48L266.24 119.64L266.18 119.78L266.1 119.92L265.99 120.04L265.87 120.14L265.74 120.23L265.59 120.29L265.43 120.33L265.26 120.34L242.79 120.34L242.62 120.33L242.46 120.29L242.31 120.23L242.18 120.14L242.06 120.04L241.95 119.92L241.87 119.78L241.8 119.64L241.76 119.48L241.75 119.31L241.76 119.14L241.8 118.98L241.87 118.83L241.95 118.7L242.06 118.57L242.18 118.47L242.31 118.39L242.46 118.32L242.62 118.28L242.79 118.27L265.26 118.27L265.43 118.28L265.59 118.32L265.74 118.39Z" id="azv6EtlWW"></path><path d="M265.74 118.39L265.87 118.47L265.99 118.57L266.1 118.7L266.18 118.83L266.24 118.98L266.28 119.14L266.3 119.31L266.28 119.48L266.24 119.64L266.18 119.78L266.1 119.92L265.99 120.04L265.87 120.14L265.74 120.23L265.59 120.29L265.43 120.33L265.26 120.34L242.79 120.34L242.62 120.33L242.46 120.29L242.31 120.23L242.18 120.14L242.06 120.04L241.95 119.92L241.87 119.78L241.8 119.64L241.76 119.48L241.75 119.31L241.76 119.14L241.8 118.98L241.87 118.83L241.95 118.7L242.06 118.57L242.18 118.47L242.31 118.39L242.46 118.32L242.62 118.28L242.79 118.27L265.26 118.27L265.43 118.28L265.59 118.32L265.74 118.39Z" id="d4rKVrb3vL"></path><path d="M262.8 123.6L262.88 124L262.8 124.4L262.58 124.73L262.25 124.96L261.85 125.04L252.74 125.04L252.34 124.96L252.01 124.73L251.79 124.4L251.71 124L251.79 123.6L252.01 123.27L252.34 123.05L252.74 122.96L261.85 122.96L262.25 123.05L262.58 123.27L262.8 123.6Z" id="abHFduSgX"></path><path d="M262.8 123.6L262.88 124L262.8 124.4L262.58 124.73L262.25 124.96L261.85 125.04L252.74 125.04L252.34 124.96L252.01 124.73L251.79 124.4L251.71 124L251.79 123.6L252.01 123.27L252.34 123.05L252.74 122.96L261.85 122.96L262.25 123.05L262.58 123.27L262.8 123.6Z" id="b6jrl7akV"></path><path d="M250.29 123.6L250.37 124L250.29 124.4L250.06 124.73L249.73 124.96L249.33 125.04L246.2 125.04L245.8 124.96L245.47 124.73L245.25 124.4L245.16 124L245.25 123.6L245.47 123.27L245.8 123.05L246.2 122.96L249.33 122.96L249.73 123.05L250.06 123.27L250.29 123.6Z" id="b63CcXc8ON"></path><path d="M250.29 123.6L250.37 124L250.29 124.4L250.06 124.73L249.73 124.96L249.33 125.04L246.2 125.04L245.8 124.96L245.47 124.73L245.25 124.4L245.16 124L245.25 123.6L245.47 123.27L245.8 123.05L246.2 122.96L249.33 122.96L249.73 123.05L250.06 123.27L250.29 123.6Z" id="cgdtclI7"></path><path d="M243.6 123.6L243.68 124L243.6 124.4L243.38 124.73L243.05 124.96L242.65 125.04L234.98 125.04L234.58 124.96L234.25 124.73L234.02 124.4L233.94 124L234.02 123.6L234.25 123.27L234.58 123.05L234.98 122.96L242.65 122.96L243.05 123.05L243.38 123.27L243.6 123.6Z" id="d1CNscRg0E"></path><path d="M243.6 123.6L243.68 124L243.6 124.4L243.38 124.73L243.05 124.96L242.65 125.04L234.98 125.04L234.58 124.96L234.25 124.73L234.02 124.4L233.94 124L234.02 123.6L234.25 123.27L234.58 123.05L234.98 122.96L242.65 122.96L243.05 123.05L243.38 123.27L243.6 123.6Z" id="i26djD52dF"></path><path d="M233.7 137.68L233.78 138.08L233.7 138.49L233.48 138.81L233.15 139.04L232.75 139.12L225.56 139.12L225.16 139.04L224.83 138.81L224.61 138.49L224.53 138.08L224.61 137.68L224.83 137.35L225.16 137.13L225.56 137.05L232.75 137.05L233.15 137.13L233.48 137.35L233.7 137.68Z" id="ijUYRvmi6"></path><path d="M233.7 137.68L233.78 138.08L233.7 138.49L233.48 138.81L233.15 139.04L232.75 139.12L225.56 139.12L225.16 139.04L224.83 138.81L224.61 138.49L224.53 138.08L224.61 137.68L224.83 137.35L225.16 137.13L225.56 137.05L232.75 137.05L233.15 137.13L233.48 137.35L233.7 137.68Z" id="a1sCVDSY"></path><path d="M223.25 137.68L223.33 138.08L223.25 138.49L223.03 138.81L222.7 139.04L222.3 139.12L216.77 139.12L216.37 139.04L216.04 138.81L215.82 138.49L215.74 138.08L215.82 137.68L216.04 137.35L216.37 137.13L216.77 137.05L222.3 137.05L222.7 137.13L223.03 137.35L223.25 137.68Z" id="bpE3if33T"></path><path d="M223.25 137.68L223.33 138.08L223.25 138.49L223.03 138.81L222.7 139.04L222.3 139.12L216.77 139.12L216.37 139.04L216.04 138.81L215.82 138.49L215.74 138.08L215.82 137.68L216.04 137.35L216.37 137.13L216.77 137.05L222.3 137.05L222.7 137.13L223.03 137.35L223.25 137.68Z" id="c9JtBprqz"></path><path d="M246.61 137.47L246.76 137.75L246.81 138.08L246.76 138.41L246.61 138.69L246.39 138.92L246.1 139.07L245.77 139.12L236.39 139.12L236.06 139.07L235.78 138.92L235.55 138.69L235.4 138.41L235.35 138.08L235.4 137.75L235.55 137.47L235.78 137.25L236.06 137.1L236.39 137.05L245.77 137.05L246.1 137.1L246.39 137.25L246.61 137.47Z" id="aGATiD3jN"></path><path d="M246.61 137.47L246.76 137.75L246.81 138.08L246.76 138.41L246.61 138.69L246.39 138.92L246.1 139.07L245.77 139.12L236.39 139.12L236.06 139.07L235.78 138.92L235.55 138.69L235.4 138.41L235.35 138.08L235.4 137.75L235.55 137.47L235.78 137.25L236.06 137.1L236.39 137.05L245.77 137.05L246.1 137.1L246.39 137.25L246.61 137.47Z" id="a19gbBbLYp"></path><path d="M252.43 134.53L275.53 134.53L275.53 142.35L252.43 142.35L252.43 134.53Z" id="b1d3iZ1IJB"></path><path d="M252.43 146.62L275.53 146.62L275.53 153.87L252.43 153.87L252.43 146.62Z" id="ewcWrLXW3"></path><path d="M272.8 134.53L275.53 134.53L275.53 142.35L272.8 142.35L272.8 134.53Z" id="b1DSGDKEU4"></path><path d="M272.8 146.62L275.53 146.62L275.53 153.87L272.8 153.87L272.8 146.62Z" id="b2lVN372zp"></path><path d="M277.79 129.04L277.89 129.08L277.99 129.14L278.09 129.21L278.17 129.28L278.25 129.37L278.31 129.46L278.37 129.56L278.41 129.66L278.45 129.77L278.47 129.89L278.47 130.01L278.47 135.19L278.47 135.31L278.45 135.43L278.41 135.54L278.37 135.65L278.31 135.75L278.25 135.84L278.17 135.92L278.09 136L277.99 136.07L277.89 136.12L277.79 136.17L277.68 136.2L277.56 136.22L277.44 136.23L250.52 136.23L250.4 136.22L250.28 136.2L250.17 136.17L250.06 136.12L249.97 136.07L249.87 136L249.79 135.92L249.71 135.84L249.65 135.75L249.59 135.65L249.55 135.54L249.51 135.43L249.49 135.31L249.49 135.19L249.49 130.01L249.49 129.89L249.51 129.77L249.55 129.66L249.59 129.56L249.65 129.46L249.71 129.37L249.79 129.28L249.87 129.21L249.97 129.14L250.06 129.08L250.17 129.04L250.28 129.01L250.4 128.99L250.52 128.98L277.44 128.98L277.56 128.99L277.68 129.01L277.79 129.04Z" id="b3XdvAlRvr"></path><path d="M277.79 140.66L277.89 140.71L277.99 140.76L278.09 140.83L278.17 140.91L278.25 140.99L278.31 141.08L278.37 141.18L278.41 141.29L278.45 141.4L278.47 141.51L278.47 141.64L278.47 146.82L278.47 146.94L278.45 147.06L278.41 147.17L278.37 147.27L278.31 147.37L278.25 147.46L278.17 147.55L278.09 147.62L277.99 147.69L277.89 147.75L277.79 147.79L277.68 147.82L277.56 147.84L277.44 147.85L250.52 147.85L250.4 147.84L250.28 147.82L250.17 147.79L250.06 147.75L249.97 147.69L249.87 147.62L249.79 147.55L249.71 147.46L249.65 147.37L249.59 147.27L249.55 147.17L249.51 147.06L249.49 146.94L249.49 146.82L249.49 141.64L249.49 141.51L249.51 141.4L249.55 141.29L249.59 141.18L249.65 141.08L249.71 140.99L249.79 140.91L249.87 140.83L249.97 140.76L250.06 140.71L250.17 140.66L250.28 140.63L250.4 140.61L250.52 140.6L277.44 140.6L277.56 140.61L277.68 140.63L277.79 140.66Z" id="a46jiFaKiJ"></path><path d="M273.47 151.25L273.57 151.3L273.67 151.35L273.76 151.42L273.85 151.49L273.92 151.58L273.99 151.67L274.05 151.77L274.09 151.88L274.12 151.99L274.14 152.1L274.15 152.22L274.15 157.41L274.14 157.53L274.12 157.64L274.09 157.76L274.05 157.86L273.99 157.96L273.92 158.05L273.85 158.14L273.76 158.21L273.67 158.28L273.57 158.33L273.47 158.38L273.36 158.41L273.24 158.43L273.12 158.44L246.2 158.44L246.08 158.43L245.96 158.41L245.85 158.38L245.74 158.33L245.64 158.28L245.55 158.21L245.47 158.14L245.39 158.05L245.33 157.96L245.27 157.86L245.22 157.76L245.19 157.64L245.17 157.53L245.16 157.41L245.16 152.22L245.17 152.1L245.19 151.99L245.22 151.88L245.27 151.77L245.33 151.67L245.39 151.58L245.47 151.49L245.55 151.42L245.64 151.35L245.74 151.3L245.85 151.25L245.96 151.22L246.08 151.2L246.2 151.19L273.12 151.19L273.24 151.2L273.36 151.22L273.47 151.25Z" id="c4tZp9lbyr"></path><path d="M278.39 129.61L278.47 130.01L278.47 135.19L278.39 135.6L278.17 135.92L277.84 136.14L277.44 136.23L275.05 136.23L275.45 136.14L275.78 135.92L276 135.6L276.08 135.19L276.08 130.01L276 129.61L275.78 129.28L275.45 129.06L275.05 128.98L277.44 128.98L277.84 129.06L278.17 129.28L278.39 129.61Z" id="acNZCKvNI"></path><path d="M278.39 141.23L278.47 141.63L278.47 146.82L278.39 147.22L278.17 147.55L277.84 147.77L277.44 147.85L275.05 147.85L275.45 147.77L275.78 147.55L276 147.22L276.08 146.82L276.08 141.63L276 141.23L275.78 140.91L275.45 140.68L275.05 140.6L277.44 140.6L277.84 140.68L278.17 140.91L278.39 141.23Z" id="b1LdkussMN"></path><path d="M278.39 152.86L278.47 153.26L278.47 158.44L278.39 158.85L278.17 159.17L277.84 159.39L277.44 159.48L275.05 159.48L275.45 159.39L275.78 159.17L276 158.85L276.08 158.44L276.08 153.26L276 152.86L275.78 152.53L275.45 152.31L275.05 152.23L277.44 152.23L277.84 152.31L278.17 152.53L278.39 152.86Z" id="fsOavpBiK"></path><path d="M259.42 132.2L259.51 132.6L259.42 133.01L259.2 133.34L258.87 133.56L258.47 133.64L253.34 133.64L252.93 133.56L252.6 133.34L252.38 133.01L252.3 132.6L252.38 132.2L252.6 131.87L252.93 131.65L253.34 131.57L258.47 131.57L258.87 131.65L259.2 131.87L259.42 132.2Z" id="c1LOXuvevm"></path><path d="M259.42 132.2L259.51 132.6L259.42 133.01L259.2 133.34L258.87 133.56L258.47 133.64L253.34 133.64L252.93 133.56L252.6 133.34L252.38 133.01L252.3 132.6L252.38 132.2L252.6 131.87L252.93 131.65L253.34 131.57L258.47 131.57L258.87 131.65L259.2 131.87L259.42 132.2Z" id="gK9AtfrPr"></path><path d="M275.58 132.2L275.66 132.6L275.58 133.01L275.36 133.34L275.03 133.56L274.62 133.64L267.38 133.64L266.97 133.56L266.64 133.34L266.42 133.01L266.34 132.6L266.42 132.2L266.64 131.87L266.97 131.65L267.38 131.57L274.62 131.57L275.03 131.65L275.36 131.87L275.58 132.2Z" id="axWnz7IdW"></path><path d="M275.58 133.01L275.66 132.61L275.58 132.2L275.36 131.87L275.03 131.65L274.62 131.57L267.38 131.57L266.97 131.65L266.64 131.87L266.42 132.2L266.34 132.61L266.42 133.01L266.64 133.34L266.97 133.56L267.38 133.64L274.62 133.64L275.03 133.56L275.36 133.34L275.58 133.01Z" id="j2lz4zrSCf"></path><path d="M264.71 132.2L264.79 132.6L264.71 133.01L264.49 133.34L264.16 133.56L263.75 133.64L262.09 133.64L261.69 133.56L261.36 133.34L261.14 133.01L261.06 132.6L261.14 132.2L261.36 131.87L261.69 131.65L262.09 131.57L263.75 131.57L264.16 131.65L264.49 131.87L264.71 132.2Z" id="buxpZpO2H"></path><path d="M264.71 132.2L264.79 132.6L264.71 133.01L264.49 133.34L264.16 133.56L263.75 133.64L262.09 133.64L261.69 133.56L261.36 133.34L261.14 133.01L261.06 132.6L261.14 132.2L261.36 131.87L261.69 131.65L262.09 131.57L263.75 131.57L264.16 131.65L264.49 131.87L264.71 132.2Z" id="f49DnJrx7z"></path><path d="M259.42 143.82L259.51 144.23L259.42 144.63L259.2 144.96L258.87 145.18L258.47 145.26L253.34 145.26L252.93 145.18L252.6 144.96L252.38 144.63L252.3 144.23L252.38 143.82L252.6 143.49L252.93 143.27L253.34 143.19L258.47 143.19L258.87 143.27L259.2 143.49L259.42 143.82Z" id="b1Q0fEfThk"></path><path d="M275.58 143.82L275.66 144.23L275.58 144.63L275.36 144.96L275.03 145.18L274.62 145.26L267.38 145.26L266.97 145.18L266.64 144.96L266.42 144.63L266.34 144.23L266.42 143.82L266.64 143.49L266.97 143.27L267.38 143.19L274.62 143.19L275.03 143.27L275.36 143.49L275.58 143.82Z" id="efdlCQwYf"></path><path d="M275.58 143.82L275.66 144.23L275.58 144.63L275.36 144.96L275.03 145.18L274.62 145.26L267.38 145.26L266.97 145.18L266.64 144.96L266.42 144.63L266.34 144.23L266.42 143.82L266.64 143.49L266.97 143.27L267.38 143.19L274.62 143.19L275.03 143.27L275.36 143.49L275.58 143.82Z" id="aaurCOqLF9"></path><path d="M264.71 143.82L264.79 144.23L264.71 144.63L264.49 144.96L264.16 145.18L263.75 145.26L262.09 145.26L261.69 145.18L261.36 144.96L261.14 144.63L261.06 144.23L261.14 143.82L261.36 143.49L261.69 143.27L262.09 143.19L263.75 143.19L264.16 143.27L264.49 143.49L264.71 143.82Z" id="abbOdk7ejQ"></path><path d="M264.71 143.82L264.79 144.23L264.71 144.63L264.49 144.96L264.16 145.18L263.75 145.26L262.09 145.26L261.69 145.18L261.36 144.96L261.14 144.63L261.06 144.23L261.14 143.82L261.36 143.49L261.69 143.27L262.09 143.19L263.75 143.19L264.16 143.27L264.49 143.49L264.71 143.82Z" id="aUK8NgZlO"></path><path d="M259.42 155.45L259.51 155.85L259.42 156.26L259.2 156.58L258.87 156.81L258.47 156.89L253.34 156.89L252.93 156.81L252.6 156.58L252.38 156.26L252.3 155.85L252.38 155.45L252.6 155.12L252.93 154.9L253.34 154.82L258.47 154.82L258.87 154.9L259.2 155.12L259.42 155.45Z" id="eiBQiNq2"></path><path d="M259.42 155.45L259.51 155.85L259.42 156.26L259.2 156.58L258.87 156.81L258.47 156.89L253.34 156.89L252.93 156.81L252.6 156.58L252.38 156.26L252.3 155.85L252.38 155.45L252.6 155.12L252.93 154.9L253.34 154.82L258.47 154.82L258.87 154.9L259.2 155.12L259.42 155.45Z" id="a2nOTggUy"></path><path d="M275.58 155.45L275.66 155.85L275.58 156.26L275.36 156.58L275.03 156.81L274.62 156.89L267.38 156.89L266.97 156.81L266.64 156.58L266.42 156.26L266.34 155.85L266.42 155.45L266.64 155.12L266.97 154.9L267.38 154.82L274.62 154.82L275.03 154.9L275.36 155.12L275.58 155.45Z" id="ixDdVHgUg"></path><path d="M275.58 155.45L275.66 155.85L275.58 156.26L275.36 156.58L275.03 156.81L274.62 156.89L267.38 156.89L266.97 156.81L266.64 156.58L266.42 156.26L266.34 155.85L266.42 155.45L266.64 155.12L266.97 154.9L267.38 154.82L274.62 154.82L275.03 154.9L275.36 155.12L275.58 155.45Z" id="ajWzDCKlc"></path><path d="M264.71 155.45L264.79 155.85L264.71 156.26L264.49 156.58L264.16 156.81L263.75 156.89L262.09 156.89L261.69 156.81L261.36 156.58L261.14 156.26L261.06 155.85L261.14 155.45L261.36 155.12L261.69 154.9L262.09 154.82L263.75 154.82L264.16 154.9L264.49 155.12L264.71 155.45Z" id="b1jHzOJC9i"></path><path d="M264.71 155.45L264.79 155.85L264.71 156.26L264.49 156.58L264.16 156.81L263.75 156.89L262.09 156.89L261.69 156.81L261.36 156.58L261.14 156.26L261.06 155.85L261.14 155.45L261.36 155.12L261.69 154.9L262.09 154.82L263.75 154.82L264.16 154.9L264.49 155.12L264.71 155.45Z" id="a2Hl7DaF45"></path><path d="M220.14 103.48L220.3 104.29L220.14 105.09L219.69 105.75L219.04 106.19L218.23 106.35L217.43 106.19L216.78 105.75L216.33 105.09L216.17 104.29L216.33 103.48L216.78 102.83L217.43 102.39L218.23 102.22L219.04 102.39L219.69 102.83L220.14 103.48Z" id="adkERwoBS"></path><path d="M220.14 103.48L220.3 104.29L220.14 105.09L219.69 105.75L219.04 106.19L218.23 106.35L217.43 106.19L216.78 105.75L216.33 105.09L216.17 104.29L216.33 103.48L216.78 102.83L217.43 102.39L218.23 102.22L219.04 102.39L219.69 102.83L220.14 103.48Z" id="d19qRuwGNT"></path><path d="M228.11 103.48L228.27 104.29L228.11 105.09L227.66 105.75L227.01 106.19L226.2 106.35L225.4 106.19L224.75 105.75L224.3 105.09L224.14 104.29L224.3 103.48L224.75 102.83L225.4 102.39L226.2 102.22L227.01 102.39L227.66 102.83L228.11 103.48Z" id="aMPwOIrx9"></path><path d="M228.11 103.48L228.27 104.29L228.11 105.09L227.66 105.75L227.01 106.19L226.2 106.35L225.4 106.19L224.75 105.75L224.3 105.09L224.14 104.29L224.3 103.48L224.75 102.83L225.4 102.39L226.2 102.22L227.01 102.39L227.66 102.83L228.11 103.48Z" id="e29yx1p2CE"></path><path d="M236.08 103.48L236.24 104.29L236.08 105.09L235.63 105.75L234.98 106.19L234.17 106.35L233.37 106.19L232.72 105.75L232.27 105.09L232.11 104.29L232.27 103.48L232.72 102.83L233.37 102.39L234.17 102.22L234.98 102.39L235.63 102.83L236.08 103.48Z" id="a3oISv6bUS"></path><path d="M236.08 103.48L236.24 104.29L236.08 105.09L235.63 105.75L234.98 106.19L234.17 106.35L233.37 106.19L232.72 105.75L232.27 105.09L232.11 104.29L232.27 103.48L232.72 102.83L233.37 102.39L234.17 102.22L234.98 102.39L235.63 102.83L236.08 103.48Z" id="b2lBFzvkaY"></path><path d="M220.14 103.48L220.3 104.29L220.14 105.09L219.69 105.75L219.04 106.19L218.24 106.35L217.83 106.31L217.46 106.2L217.11 106.02L216.81 105.78L217.6 105.6L218.24 105.16L218.67 104.51L218.83 103.72L218.78 103.29L218.65 102.89L218.45 102.53L218.19 102.23L218.2 102.22L218.21 102.22L218.22 102.22L218.24 102.22L219.04 102.39L219.69 102.83L220.14 103.48Z" id="c1CUg4J7UZ"></path><path d="M220.14 103.48L220.3 104.29L220.14 105.09L219.69 105.75L219.04 106.19L218.24 106.35L217.83 106.31L217.46 106.2L217.11 106.02L216.81 105.78L217.6 105.6L218.24 105.16L218.67 104.51L218.83 103.72L218.78 103.29L218.65 102.89L218.45 102.53L218.19 102.23L218.2 102.22L218.21 102.22L218.22 102.22L218.24 102.22L219.04 102.39L219.69 102.83L220.14 103.48Z" id="ahC6OXRly"></path><path d="M228.11 103.48L228.27 104.29L228.11 105.09L227.66 105.75L227.01 106.19L226.2 106.35L225.8 106.31L225.42 106.2L225.08 106.02L224.78 105.78L225.57 105.6L226.21 105.16L226.64 104.51L226.8 103.72L226.75 103.29L226.62 102.89L226.42 102.53L226.16 102.23L226.17 102.22L226.18 102.22L226.19 102.22L226.2 102.22L227.01 102.39L227.66 102.83L228.11 103.48Z" id="anpTlBlq5"></path><path d="M228.11 103.48L228.27 104.29L228.11 105.09L227.66 105.75L227.01 106.19L226.2 106.35L225.8 106.31L225.42 106.2L225.08 106.02L224.78 105.78L225.57 105.6L226.21 105.16L226.64 104.51L226.8 103.72L226.75 103.29L226.62 102.89L226.42 102.53L226.16 102.23L226.17 102.22L226.18 102.22L226.19 102.22L226.2 102.22L227.01 102.39L227.66 102.83L228.11 103.48Z" id="aYJL9uJYx"></path><path d="M236.08 103.48L236.24 104.29L236.08 105.09L235.63 105.75L234.98 106.19L234.17 106.35L233.77 106.31L233.39 106.2L233.05 106.02L232.75 105.78L233.54 105.6L234.18 105.16L234.61 104.51L234.77 103.72L234.72 103.29L234.59 102.89L234.39 102.53L234.13 102.23L234.14 102.22L234.15 102.22L234.16 102.22L234.17 102.22L234.98 102.39L235.63 102.83L236.08 103.48Z" id="c3vjRwHjZ"></path><path d="M236.08 103.48L236.24 104.29L236.08 105.09L235.63 105.75L234.98 106.19L234.17 106.35L233.77 106.31L233.39 106.2L233.05 106.02L232.75 105.78L233.54 105.6L234.18 105.16L234.61 104.51L234.77 103.72L234.72 103.29L234.59 102.89L234.39 102.53L234.13 102.23L234.14 102.22L234.15 102.22L234.16 102.22L234.17 102.22L234.98 102.39L235.63 102.83L236.08 103.48Z" id="c4sIXFoiAO"></path></defs><g><g><g><use xlink:href="#bdl6YNRhZ" opacity="1" fill="#5a5a5a" fill-opacity="1"></use><g><use xlink:href="#bdl6YNRhZ" opacity="1" fill-opacity="0" stroke="#000000" stroke-width="1" stroke-opacity="0"></use></g></g><g><use xlink:href="#agqpjYg8R" opacity="1" fill="#000000" fill-opacity="0"></use><g><use xlink:href="#agqpjYg8R" opacity="1" fill-opacity="0" stroke="#000000" stroke-width="1" stroke-opacity="0"></use></g></g><g><use xlink:href="#eDvV25h4z" opacity="1" fill="#d5d5d5" fill-opacity="1"></use><g><use xlink:href="#eDvV25h4z" opacity="1" fill-opacity="0" stroke="#000000" stroke-width="1" stroke-opacity="0"></use></g></g><g><use xlink:href="#bmva0SbUB" opacity="1" fill="#838383" fill-opacity="1"></use><g><use xlink:href="#bmva0SbUB" opacity="1" fill-opacity="0" stroke="#000000" stroke-width="1" stroke-opacity="0"></use></g></g><g><use xlink:href="#d1mndR23Bb" opacity="1" fill="#838383" fill-opacity="1"></use><g><use xlink:href="#d1mndR23Bb" opacity="1" fill-opacity="0" stroke="#000000" stroke-width="1" stroke-opacity="0"></use></g></g><g><use xlink:href="#a1hCG78z69" opacity="1" fill="#000000" fill-opacity="0"></use><g><use xlink:href="#a1hCG78z69" opacity="1" fill-opacity="0" stroke="#000000" stroke-width="1" stroke-opacity="0"></use></g></g><g><use xlink:href="#b8Fs1Y7He" opacity="1" fill="#5a5a5a" fill-opacity="1"></use><g><use xlink:href="#b8Fs1Y7He" opacity="1" fill-opacity="0" stroke="#000000" stroke-width="1" stroke-opacity="0"></use></g></g><g><use xlink:href="#bBVZai9kr" opacity="1" fill="#000000" fill-opacity="0"></use><g><use xlink:href="#bBVZai9kr" opacity="1" fill-opacity="0" stroke="#000000" stroke-width="1" stroke-opacity="0"></use></g></g><g><use xlink:href="#b1OKFUjpN2" opacity="1" fill="#acacac" fill-opacity="1"></use><g><use xlink:href="#b1OKFUjpN2" opacity="1" fill-opacity="0" stroke="#000000" stroke-width="1" stroke-opacity="0"></use></g></g><g><use xlink:href="#b13ukA7GSy" opacity="1" fill="#000000" fill-opacity="0"></use><g><use xlink:href="#b13ukA7GSy" opacity="1" fill-opacity="0" stroke="#000000" stroke-width="1" stroke-opacity="0"></use></g></g><g><use xlink:href="#c1l7qMG2hq" opacity="1" fill="#000000" fill-opacity="0"></use><g><use xlink:href="#c1l7qMG2hq" opacity="1" fill-opacity="0" stroke="#000000" stroke-width="1" stroke-opacity="0"></use></g></g><g><use xlink:href="#b1mD4E7obC" opacity="1" fill="#838383" fill-opacity="1"></use><g><use xlink:href="#b1mD4E7obC" opacity="1" fill-opacity="0" stroke="#000000" stroke-width="1" stroke-opacity="0"></use></g></g><g><use xlink:href="#b1cqjT4qmO" opacity="1" fill="#000000" fill-opacity="0"></use><g><use xlink:href="#b1cqjT4qmO" opacity="1" fill-opacity="0" stroke="#000000" stroke-width="1" stroke-opacity="0"></use></g></g><g><use xlink:href="#a2lFxfy9Qf" opacity="1" fill="#5a5a5a" fill-opacity="1"></use><g><use xlink:href="#a2lFxfy9Qf" opacity="1" fill-opacity="0" stroke="#000000" stroke-width="1" stroke-opacity="0"></use></g></g><g><use xlink:href="#a1H2q2XQXu" opacity="1" fill="#000000" fill-opacity="0"></use><g><use xlink:href="#a1H2q2XQXu" opacity="1" fill-opacity="0" stroke="#000000" stroke-width="1" stroke-opacity="0"></use></g></g><g><use xlink:href="#a1DEKnYkW6" opacity="1" fill="#838383" fill-opacity="1"></use><g><use xlink:href="#a1DEKnYkW6" opacity="1" fill-opacity="0" stroke="#000000" stroke-width="1" stroke-opacity="0"></use></g></g><g><use xlink:href="#b1cOSHmI3C" opacity="1" fill="#000000" fill-opacity="0"></use><g><use xlink:href="#b1cOSHmI3C" opacity="1" fill-opacity="0" stroke="#000000" stroke-width="1" stroke-opacity="0"></use></g></g><g><use xlink:href="#d1ZG7oGlz" opacity="1" fill="#838383" fill-opacity="1"></use><g><use xlink:href="#d1ZG7oGlz" opacity="1" fill-opacity="0" stroke="#000000" stroke-width="1" stroke-opacity="0"></use></g></g><g><use xlink:href="#bfm1b14Q" opacity="1" fill="#000000" fill-opacity="0"></use><g><use xlink:href="#bfm1b14Q" opacity="1" fill-opacity="0" stroke="#000000" stroke-width="1" stroke-opacity="0"></use></g></g><g><use xlink:href="#g4L3m8iDB0" opacity="1" fill="#838383" fill-opacity="1"></use><g><use xlink:href="#g4L3m8iDB0" opacity="1" fill-opacity="0" stroke="#000000" stroke-width="1" stroke-opacity="0"></use></g></g><g><use xlink:href="#ofaI1Ruds" opacity="1" fill="#000000" fill-opacity="0"></use><g><use xlink:href="#ofaI1Ruds" opacity="1" fill-opacity="0" stroke="#000000" stroke-width="1" stroke-opacity="0"></use></g></g><g><use xlink:href="#e11soJYPY2" opacity="1" fill="#838383" fill-opacity="1"></use><g><use xlink:href="#e11soJYPY2" opacity="1" fill-opacity="0" stroke="#000000" stroke-width="1" stroke-opacity="0"></use></g></g><g><use xlink:href="#e85iGXa5c2" opacity="1" fill="#000000" fill-opacity="0"></use><g><use xlink:href="#e85iGXa5c2" opacity="1" fill-opacity="0" stroke="#000000" stroke-width="1" stroke-opacity="0"></use></g></g><g><use xlink:href="#l2Rtkp1b9T" opacity="1" fill="#838383" fill-opacity="1"></use><g><use xlink:href="#l2Rtkp1b9T" opacity="1" fill-opacity="0" stroke="#000000" stroke-width="1" stroke-opacity="0"></use></g></g><g><use xlink:href="#a3RVuUfnFr" opacity="1" fill="#000000" fill-opacity="0"></use><g><use xlink:href="#a3RVuUfnFr" opacity="1" fill-opacity="0" stroke="#000000" stroke-width="1" stroke-opacity="0"></use></g></g><g><use xlink:href="#eQpfSBYwL" opacity="1" fill="#838383" fill-opacity="1"></use><g><use xlink:href="#eQpfSBYwL" opacity="1" fill-opacity="0" stroke="#000000" stroke-width="1" stroke-opacity="0"></use></g></g><g><use xlink:href="#f132B86L1" opacity="1" fill="#000000" fill-opacity="0"></use><g><use xlink:href="#f132B86L1" opacity="1" fill-opacity="0" stroke="#000000" stroke-width="1" stroke-opacity="0"></use></g></g><g><use xlink:href="#b92fgwq5F" opacity="1" fill="#838383" fill-opacity="1"></use><g><use xlink:href="#b92fgwq5F" opacity="1" fill-opacity="0" stroke="#000000" stroke-width="1" stroke-opacity="0"></use></g></g><g><use xlink:href="#a1iBzjnMxf" opacity="1" fill="#000000" fill-opacity="0"></use><g><use xlink:href="#a1iBzjnMxf" opacity="1" fill-opacity="0" stroke="#000000" stroke-width="1" stroke-opacity="0"></use></g></g><g><use xlink:href="#c3O0afkmrK" opacity="1" fill="#838383" fill-opacity="1"></use><g><use xlink:href="#c3O0afkmrK" opacity="1" fill-opacity="0" stroke="#000000" stroke-width="1" stroke-opacity="0"></use></g></g><g><use xlink:href="#eEoyYKEOu" opacity="1" fill="#000000" fill-opacity="0"></use><g><use xlink:href="#eEoyYKEOu" opacity="1" fill-opacity="0" stroke="#000000" stroke-width="1" stroke-opacity="0"></use></g></g><g><use xlink:href="#b1owdrEDTJ" opacity="1" fill="#838383" fill-opacity="1"></use><g><use xlink:href="#b1owdrEDTJ" opacity="1" fill-opacity="0" stroke="#000000" stroke-width="1" stroke-opacity="0"></use></g></g><g><use xlink:href="#a1Aoiy1Qz8" opacity="1" fill="#000000" fill-opacity="0"></use><g><use xlink:href="#a1Aoiy1Qz8" opacity="1" fill-opacity="0" stroke="#000000" stroke-width="1" stroke-opacity="0"></use></g></g><g><use xlink:href="#e13XkrPTBR" opacity="1" fill="#838383" fill-opacity="1"></use><g><use xlink:href="#e13XkrPTBR" opacity="1" fill-opacity="0" stroke="#000000" stroke-width="1" stroke-opacity="0"></use></g></g><g><use xlink:href="#ggVu5SqbH" opacity="1" fill="#000000" fill-opacity="0"></use><g><use xlink:href="#ggVu5SqbH" opacity="1" fill-opacity="0" stroke="#000000" stroke-width="1" stroke-opacity="0"></use></g></g><g><use xlink:href="#azv6EtlWW" opacity="1" fill="#838383" fill-opacity="1"></use><g><use xlink:href="#azv6EtlWW" opacity="1" fill-opacity="0" stroke="#000000" stroke-width="1" stroke-opacity="0"></use></g></g><g><use xlink:href="#d4rKVrb3vL" opacity="1" fill="#000000" fill-opacity="0"></use><g><use xlink:href="#d4rKVrb3vL" opacity="1" fill-opacity="0" stroke="#000000" stroke-width="1" stroke-opacity="0"></use></g></g><g><use xlink:href="#abHFduSgX" opacity="1" fill="#838383" fill-opacity="1"></use><g><use xlink:href="#abHFduSgX" opacity="1" fill-opacity="0" stroke="#000000" stroke-width="1" stroke-opacity="0"></use></g></g><g><use xlink:href="#b6jrl7akV" opacity="1" fill="#000000" fill-opacity="0"></use><g><use xlink:href="#b6jrl7akV" opacity="1" fill-opacity="0" stroke="#000000" stroke-width="1" stroke-opacity="0"></use></g></g><g><use xlink:href="#b63CcXc8ON" opacity="1" fill="#838383" fill-opacity="1"></use><g><use xlink:href="#b63CcXc8ON" opacity="1" fill-opacity="0" stroke="#000000" stroke-width="1" stroke-opacity="0"></use></g></g><g><use xlink:href="#cgdtclI7" opacity="1" fill="#000000" fill-opacity="0"></use><g><use xlink:href="#cgdtclI7" opacity="1" fill-opacity="0" stroke="#000000" stroke-width="1" stroke-opacity="0"></use></g></g><g><use xlink:href="#d1CNscRg0E" opacity="1" fill="#838383" fill-opacity="1"></use><g><use xlink:href="#d1CNscRg0E" opacity="1" fill-opacity="0" stroke="#000000" stroke-width="1" stroke-opacity="0"></use></g></g><g><use xlink:href="#i26djD52dF" opacity="1" fill="#000000" fill-opacity="0"></use><g><use xlink:href="#i26djD52dF" opacity="1" fill-opacity="0" stroke="#000000" stroke-width="1" stroke-opacity="0"></use></g></g><g><use xlink:href="#ijUYRvmi6" opacity="1" fill="#838383" fill-opacity="1"></use><g><use xlink:href="#ijUYRvmi6" opacity="1" fill-opacity="0" stroke="#000000" stroke-width="1" stroke-opacity="0"></use></g></g><g><use xlink:href="#a1sCVDSY" opacity="1" fill="#000000" fill-opacity="0"></use><g><use xlink:href="#a1sCVDSY" opacity="1" fill-opacity="0" stroke="#000000" stroke-width="1" stroke-opacity="0"></use></g></g><g><use xlink:href="#bpE3if33T" opacity="1" fill="#838383" fill-opacity="1"></use><g><use xlink:href="#bpE3if33T" opacity="1" fill-opacity="0" stroke="#000000" stroke-width="1" stroke-opacity="0"></use></g></g><g><use xlink:href="#c9JtBprqz" opacity="1" fill="#000000" fill-opacity="0"></use><g><use xlink:href="#c9JtBprqz" opacity="1" fill-opacity="0" stroke="#000000" stroke-width="1" stroke-opacity="0"></use></g></g><g><use xlink:href="#aGATiD3jN" opacity="1" fill="#838383" fill-opacity="1"></use><g><use xlink:href="#aGATiD3jN" opacity="1" fill-opacity="0" stroke="#000000" stroke-width="1" stroke-opacity="0"></use></g></g><g><use xlink:href="#a19gbBbLYp" opacity="1" fill="#000000" fill-opacity="0"></use><g><use xlink:href="#a19gbBbLYp" opacity="1" fill-opacity="0" stroke="#000000" stroke-width="1" stroke-opacity="0"></use></g></g><g><use xlink:href="#b1d3iZ1IJB" opacity="1" fill="#666666" fill-opacity="1"></use><g><use xlink:href="#b1d3iZ1IJB" opacity="1" fill-opacity="0" stroke="#000000" stroke-width="1" stroke-opacity="0"></use></g></g><g><use xlink:href="#ewcWrLXW3" opacity="1" fill="#666666" fill-opacity="1"></use><g><use xlink:href="#ewcWrLXW3" opacity="1" fill-opacity="0" stroke="#000000" stroke-width="1" stroke-opacity="0"></use></g></g><g><use xlink:href="#b1DSGDKEU4" opacity="1" fill="#3e3e3e" fill-opacity="1"></use><g><use xlink:href="#b1DSGDKEU4" opacity="1" fill-opacity="0" stroke="#000000" stroke-width="1" stroke-opacity="0"></use></g></g><g><use xlink:href="#b2lVN372zp" opacity="1" fill="#3e3e3e" fill-opacity="1"></use><g><use xlink:href="#b2lVN372zp" opacity="1" fill-opacity="0" stroke="#000000" stroke-width="1" stroke-opacity="0"></use></g></g><g><use xlink:href="#b3XdvAlRvr" opacity="1" fill="#929292" fill-opacity="1"></use><g><use xlink:href="#b3XdvAlRvr" opacity="1" fill-opacity="0" stroke="#000000" stroke-width="1" stroke-opacity="0"></use></g></g><g><use xlink:href="#a46jiFaKiJ" opacity="1" fill="#6f6f6f" fill-opacity="1"></use><g><use xlink:href="#a46jiFaKiJ" opacity="1" fill-opacity="0" stroke="#000000" stroke-width="1" stroke-opacity="0"></use></g></g><g><use xlink:href="#c4tZp9lbyr" opacity="1" fill="#929292" fill-opacity="1"></use><g><use xlink:href="#c4tZp9lbyr" opacity="1" fill-opacity="0" stroke="#000000" stroke-width="1" stroke-opacity="0"></use></g></g><g><use xlink:href="#acNZCKvNI" opacity="1" fill="#fcfcfc" fill-opacity="1"></use><g><use xlink:href="#acNZCKvNI" opacity="1" fill-opacity="0" stroke="#000000" stroke-width="1" stroke-opacity="0"></use></g></g><g><use xlink:href="#b1LdkussMN" opacity="1" fill="#fcfcfc" fill-opacity="1"></use><g><use xlink:href="#b1LdkussMN" opacity="1" fill-opacity="0" stroke="#000000" stroke-width="1" stroke-opacity="0"></use></g></g><g><use xlink:href="#fsOavpBiK" opacity="1" fill="#f5f5f5" fill-opacity="1"></use><g><use xlink:href="#fsOavpBiK" opacity="1" fill-opacity="0" stroke="#000000" stroke-width="1" stroke-opacity="0"></use></g></g><g><use xlink:href="#c1LOXuvevm" opacity="1" fill="#e7e7e7" fill-opacity="1"></use><g><use xlink:href="#c1LOXuvevm" opacity="1" fill-opacity="0" stroke="#000000" stroke-width="1" stroke-opacity="0"></use></g></g><g><use xlink:href="#gK9AtfrPr" opacity="1" fill="#000000" fill-opacity="0"></use><g><use xlink:href="#gK9AtfrPr" opacity="1" fill-opacity="0" stroke="#000000" stroke-width="1" stroke-opacity="0"></use></g></g><g><use xlink:href="#axWnz7IdW" opacity="1" fill="#e7e7e7" fill-opacity="1"></use><g><use xlink:href="#axWnz7IdW" opacity="1" fill-opacity="0" stroke="#000000" stroke-width="1" stroke-opacity="0"></use></g></g><g><use xlink:href="#j2lz4zrSCf" opacity="1" fill="#929292" fill-opacity="1"></use><g><use xlink:href="#j2lz4zrSCf" opacity="1" fill-opacity="0" stroke="#000000" stroke-width="1" stroke-opacity="0"></use></g></g><g><use xlink:href="#buxpZpO2H" opacity="1" fill="#e7e7e7" fill-opacity="1"></use><g><use xlink:href="#buxpZpO2H" opacity="1" fill-opacity="0" stroke="#000000" stroke-width="1" stroke-opacity="0"></use></g></g><g><use xlink:href="#f49DnJrx7z" opacity="1" fill="#000000" fill-opacity="0"></use><g><use xlink:href="#f49DnJrx7z" opacity="1" fill-opacity="0" stroke="#000000" stroke-width="1" stroke-opacity="0"></use></g></g><g><use xlink:href="#b1Q0fEfThk" opacity="1" fill="#e7e7e7" fill-opacity="1"></use><g><use xlink:href="#b1Q0fEfThk" opacity="1" fill-opacity="0" stroke="#000000" stroke-width="1" stroke-opacity="0"></use></g></g><g><use xlink:href="#efdlCQwYf" opacity="1" fill="#e7e7e7" fill-opacity="1"></use><g><use xlink:href="#efdlCQwYf" opacity="1" fill-opacity="0" stroke="#000000" stroke-width="1" stroke-opacity="0"></use></g></g><g><use xlink:href="#aaurCOqLF9" opacity="1" fill="#000000" fill-opacity="0"></use><g><use xlink:href="#aaurCOqLF9" opacity="1" fill-opacity="0" stroke="#000000" stroke-width="1" stroke-opacity="0"></use></g></g><g><use xlink:href="#abbOdk7ejQ" opacity="1" fill="#e7e7e7" fill-opacity="1"></use><g><use xlink:href="#abbOdk7ejQ" opacity="1" fill-opacity="0" stroke="#000000" stroke-width="1" stroke-opacity="0"></use></g></g><g><use xlink:href="#aUK8NgZlO" opacity="1" fill="#000000" fill-opacity="0"></use><g><use xlink:href="#aUK8NgZlO" opacity="1" fill-opacity="0" stroke="#000000" stroke-width="1" stroke-opacity="0"></use></g></g><g><use xlink:href="#eiBQiNq2" opacity="1" fill="#e7e7e7" fill-opacity="1"></use><g><use xlink:href="#eiBQiNq2" opacity="1" fill-opacity="0" stroke="#000000" stroke-width="1" stroke-opacity="0"></use></g></g><g><use xlink:href="#a2nOTggUy" opacity="1" fill="#000000" fill-opacity="0"></use><g><use xlink:href="#a2nOTggUy" opacity="1" fill-opacity="0" stroke="#000000" stroke-width="1" stroke-opacity="0"></use></g></g><g><use xlink:href="#ixDdVHgUg" opacity="1" fill="#e7e7e7" fill-opacity="1"></use><g><use xlink:href="#ixDdVHgUg" opacity="1" fill-opacity="0" stroke="#000000" stroke-width="1" stroke-opacity="0"></use></g></g><g><use xlink:href="#ajWzDCKlc" opacity="1" fill="#000000" fill-opacity="0"></use><g><use xlink:href="#ajWzDCKlc" opacity="1" fill-opacity="0" stroke="#000000" stroke-width="1" stroke-opacity="0"></use></g></g><g><use xlink:href="#b1jHzOJC9i" opacity="1" fill="#e7e7e7" fill-opacity="1"></use><g><use xlink:href="#b1jHzOJC9i" opacity="1" fill-opacity="0" stroke="#000000" stroke-width="1" stroke-opacity="0"></use></g></g><g><use xlink:href="#a2Hl7DaF45" opacity="1" fill="#000000" fill-opacity="0"></use><g><use xlink:href="#a2Hl7DaF45" opacity="1" fill-opacity="0" stroke="#000000" stroke-width="1" stroke-opacity="0"></use></g></g><g><use xlink:href="#adkERwoBS" opacity="1" fill="#ff5770" fill-opacity="1"></use><g><use xlink:href="#adkERwoBS" opacity="1" fill-opacity="0" stroke="#000000" stroke-width="1" stroke-opacity="0"></use></g></g><g><use xlink:href="#d19qRuwGNT" opacity="1" fill="#000000" fill-opacity="0"></use><g><use xlink:href="#d19qRuwGNT" opacity="1" fill-opacity="0" stroke="#000000" stroke-width="1" stroke-opacity="0"></use></g></g><g><use xlink:href="#aMPwOIrx9" opacity="1" fill="#ffd86e" fill-opacity="1"></use><g><use xlink:href="#aMPwOIrx9" opacity="1" fill-opacity="0" stroke="#000000" stroke-width="1" stroke-opacity="0"></use></g></g><g><use xlink:href="#e29yx1p2CE" opacity="1" fill="#000000" fill-opacity="0"></use><g><use xlink:href="#e29yx1p2CE" opacity="1" fill-opacity="0" stroke="#000000" stroke-width="1" stroke-opacity="0"></use></g></g><g><use xlink:href="#a3oISv6bUS" opacity="1" fill="#80e0dc" fill-opacity="1"></use><g><use xlink:href="#a3oISv6bUS" opacity="1" fill-opacity="0" stroke="#000000" stroke-width="1" stroke-opacity="0"></use></g></g><g><use xlink:href="#b2lBFzvkaY" opacity="1" fill="#000000" fill-opacity="0"></use><g><use xlink:href="#b2lBFzvkaY" opacity="1" fill-opacity="0" stroke="#000000" stroke-width="1" stroke-opacity="0"></use></g></g><g><use xlink:href="#c1CUg4J7UZ" opacity="1" fill="#ff435f" fill-opacity="1"></use><g><use xlink:href="#c1CUg4J7UZ" opacity="1" fill-opacity="0" stroke="#000000" stroke-width="1" stroke-opacity="0"></use></g></g><g><use xlink:href="#ahC6OXRly" opacity="1" fill="#000000" fill-opacity="0"></use><g><use xlink:href="#ahC6OXRly" opacity="1" fill-opacity="0" stroke="#000000" stroke-width="1" stroke-opacity="0"></use></g></g><g><use xlink:href="#anpTlBlq5" opacity="1" fill="#ffb509" fill-opacity="1"></use><g><use xlink:href="#anpTlBlq5" opacity="1" fill-opacity="0" stroke="#000000" stroke-width="1" stroke-opacity="0"></use></g></g><g><use xlink:href="#aYJL9uJYx" opacity="1" fill="#000000" fill-opacity="0"></use><g><use xlink:href="#aYJL9uJYx" opacity="1" fill-opacity="0" stroke="#000000" stroke-width="1" stroke-opacity="0"></use></g></g><g><use xlink:href="#c3vjRwHjZ" opacity="1" fill="#00a8b0" fill-opacity="1"></use><g><use xlink:href="#c3vjRwHjZ" opacity="1" fill-opacity="0" stroke="#000000" stroke-width="1" stroke-opacity="0"></use></g></g><g><use xlink:href="#c4sIXFoiAO" opacity="1" fill="#000000" fill-opacity="0"></use><g><use xlink:href="#c4sIXFoiAO" opacity="1" fill-opacity="0" stroke="#000000" stroke-width="1" stroke-opacity="0"></use></g></g></g></g></svg>