<?xml version="1.0" encoding="UTF-8" standalone="no"?>
<!DOCTYPE svg PUBLIC "-//W3C//DTD SVG 1.1//EN" "http://www.w3.org/Graphics/SVG/1.1/DTD/svg11.dtd">
<svg version="1.1" xmlns="http://www.w3.org/2000/svg" xmlns:xlink="http://www.w3.org/1999/xlink" preserveAspectRatio="xMidYMid meet" viewBox="202.44383598336648 100.98999999999998 79.27000000000001 79.26999999999998" width="79.27" height="79.27"><defs><path d="M242.08 100.99C220.19 100.99 202.44 118.74 202.44 140.62C202.44 162.51 220.19 180.26 242.08 180.26C263.97 180.26 281.71 162.51 281.71 140.62C281.71 118.74 263.97 100.99 242.08 100.99Z" id="a6pJM0yQJm"></path><path d="M257.54 147.46C256.73 147.46 250.22 147.46 249.41 147.46C248.38 147.46 247.55 146.62 247.55 145.59C247.55 145.5 247.55 144.8 247.55 144.71C247.55 143.91 248.06 143.23 248.81 142.95C256.74 139.97 262.17 126.96 261.07 117.76C260.03 109.08 252.97 102.08 244.28 101.11C243.58 101.03 242.88 101 242.19 100.99C242.16 100.99 242.14 100.99 242.12 100.99C231.53 100.97 222.94 109.54 222.94 120.12C222.94 128.36 228.15 140.29 235.44 142.99C236.16 143.25 236.61 143.96 236.61 144.73C236.61 144.81 236.61 145.51 236.61 145.59C236.61 146.62 235.78 147.46 234.75 147.46C233.93 147.46 227.43 147.46 226.62 147.46C217.65 147.46 210.27 154.27 209.37 163.01C216.51 173.42 228.49 180.26 242.08 180.26C255.66 180.26 267.65 173.42 274.79 163.01C273.89 154.27 266.51 147.46 257.54 147.46Z" id="dI8LNbxvP"></path><path d="M261.14 118.66C261.12 118.36 261.11 118.05 261.07 117.76C260.03 109.08 252.97 102.08 244.28 101.11C243.58 101.03 242.88 101 242.19 100.99C242.16 100.99 242.14 100.99 242.12 100.99C232.66 100.97 224.82 107.82 223.25 116.82C223.25 116.82 223.26 116.82 223.26 116.82C223.5 117.17 223.74 117.52 224 117.85C224.1 117.73 224.19 117.61 224.29 117.49C227.03 114.24 231.59 113.49 235.48 115.21C236.66 115.73 237.97 116.02 239.35 116.02C243.37 116.02 246.8 113.54 248.22 110.02C253.3 111.42 258.08 114.54 261.14 118.66Z" id="d1dxusaBdG"></path><path d="M257.54 147.46C257.42 147.46 256.82 147.46 255.75 147.46L247.55 155.66L236.61 155.66L232.51 152.93L227.83 147.46C227.1 147.46 226.7 147.46 226.62 147.46C217.65 147.46 210.27 154.27 209.37 163.01C216.51 173.42 228.49 180.26 242.08 180.26C255.66 180.26 267.65 173.42 274.79 163.01C273.89 154.27 266.51 147.46 257.54 147.46Z" id="d5LBeXg03F"></path><path d="M263.95 173.66C263.95 173.1 263.95 170.29 263.95 165.23L261.21 165.23L261.21 175.33C262.44 174.61 263.35 174.05 263.95 173.66Z" id="jhcJjKiHf"></path><path d="M222.94 165.23L220.21 165.23C220.21 170.29 220.21 173.1 220.21 173.66C221.1 174.25 222.01 174.81 222.94 175.33C222.94 173.98 222.94 170.61 222.94 165.23Z" id="a5VKhJkBo"></path><path d="M246.18 152.93C246.18 152.93 246.18 152.93 246.18 152.93C246.18 157.85 246.18 160.58 246.18 161.13C246.18 161.13 246.18 161.13 246.18 161.13C241.26 161.13 238.53 161.13 237.98 161.13C237.98 161.13 237.98 161.13 237.98 161.13C237.98 156.21 237.98 153.47 237.98 152.93C237.98 152.93 237.98 152.93 237.98 152.93C242.9 152.93 245.63 152.93 246.18 152.93Z" id="b16kXIIht7"></path><path d="M242.08 180.26C243.97 180.26 245.82 180.12 247.64 179.86C247.45 178.61 246.51 172.37 244.81 161.13L239.35 161.13L236.56 179.87C238.99 180.13 240.83 180.26 242.08 180.26Z" id="b3cv75nm6L"></path><path d="M232.51 147.46C228.53 147.46 226.32 147.46 225.87 147.46C225.78 147.46 225.72 147.55 225.75 147.64C226.11 148.54 227.91 153.04 231.15 161.13L237.98 156.57L237.98 154.02L232.51 147.46Z" id="a11wzz9oLi"></path><path d="M251.65 147.46L246.18 154.02L246.18 156.57L253.01 161.13C256.25 153.04 258.05 148.54 258.41 147.64C258.44 147.55 258.38 147.46 258.28 147.46C257.4 147.46 255.19 147.46 251.65 147.46Z" id="hDNlvaFMM"></path></defs><g><g><g><use xlink:href="#a6pJM0yQJm" opacity="1" fill="#3f3f3f" fill-opacity="1"></use><g><use xlink:href="#a6pJM0yQJm" opacity="1" fill-opacity="0" stroke="#000000" stroke-width="1" stroke-opacity="0"></use></g></g><g><use xlink:href="#dI8LNbxvP" opacity="1" fill="#8d8d8d" fill-opacity="1"></use><g><use xlink:href="#dI8LNbxvP" opacity="1" fill-opacity="0" stroke="#000000" stroke-width="1" stroke-opacity="0"></use></g></g><g><use xlink:href="#d1dxusaBdG" opacity="1" fill="#545454" fill-opacity="1"></use><g><use xlink:href="#d1dxusaBdG" opacity="1" fill-opacity="0" stroke="#000000" stroke-width="1" stroke-opacity="0"></use></g></g><g><use xlink:href="#d5LBeXg03F" opacity="1" fill="#515151" fill-opacity="1"></use><g><use xlink:href="#d5LBeXg03F" opacity="1" fill-opacity="0" stroke="#000000" stroke-width="1" stroke-opacity="0"></use></g></g><g><use xlink:href="#jhcJjKiHf" opacity="1" fill="#ccd5d6" fill-opacity="1"></use><g><use xlink:href="#jhcJjKiHf" opacity="1" fill-opacity="0" stroke="#000000" stroke-width="1" stroke-opacity="0"></use></g></g><g><use xlink:href="#a5VKhJkBo" opacity="1" fill="#ccd5d6" fill-opacity="1"></use><g><use xlink:href="#a5VKhJkBo" opacity="1" fill-opacity="0" stroke="#000000" stroke-width="1" stroke-opacity="0"></use></g></g><g><use xlink:href="#b16kXIIht7" opacity="1" fill="#323232" fill-opacity="1"></use><g><use xlink:href="#b16kXIIht7" opacity="1" fill-opacity="0" stroke="#000000" stroke-width="1" stroke-opacity="0"></use></g></g><g><use xlink:href="#b3cv75nm6L" opacity="1" fill="#323232" fill-opacity="1"></use><g><use xlink:href="#b3cv75nm6L" opacity="1" fill-opacity="0" stroke="#000000" stroke-width="1" stroke-opacity="0"></use></g></g><g><use xlink:href="#a11wzz9oLi" opacity="1" fill="#515151" fill-opacity="1"></use><g><use xlink:href="#a11wzz9oLi" opacity="1" fill-opacity="0" stroke="#000000" stroke-width="1" stroke-opacity="0"></use></g></g><g><use xlink:href="#hDNlvaFMM" opacity="1" fill="#515151" fill-opacity="1"></use><g><use xlink:href="#hDNlvaFMM" opacity="1" fill-opacity="0" stroke="#000000" stroke-width="1" stroke-opacity="0"></use></g></g></g></g></svg>